<svg width="30" height="30" fill="none" xmlns="http://www.w3.org/2000/svg"><path d="M15 30A15 15 0 1 0 15 .002 15 15 0 0 0 15 30z" fill="#1652F0"/><path d="M19.11 17.384c0-2.187-1.332-2.925-3.907-3.278-1.903-.275-2.269-.722-2.269-1.61 0-.887.644-1.44 1.875-1.44 1.122 0 1.77.39 2.035 1.294a.478.478 0 0 0 .453.347h.984a.439.439 0 0 0 .44-.51c-.312-1.428-1.274-2.287-2.784-2.556V8.125a.469.469 0 0 0-.468-.469h-.938a.469.469 0 0 0-.469.469v1.453c-1.874.263-3.059 1.5-3.059 3.088 0 2.053 1.25 2.85 3.863 3.203 1.778.29 2.284.675 2.284 1.684 0 1.01-.86 1.688-2.072 1.688-1.634 0-2.187-.716-2.372-1.644a.475.475 0 0 0-.46-.382h-1.068a.436.436 0 0 0-.434.51c.272 1.562 1.275 2.706 3.319 2.981v1.481a.469.469 0 0 0 .468.47h.938a.469.469 0 0 0 .469-.47v-1.48c1.937-.307 3.171-1.645 3.171-3.323z" fill="#fff"/><path d="M11.784 23.962a9.375 9.375 0 0 1 0-17.612.676.676 0 0 0 .403-.591v-.875a.443.443 0 0 0-.624-.447 11.25 11.25 0 0 0 0 21.438.443.443 0 0 0 .624-.447v-.875a.676.676 0 0 0-.403-.59zM18.437 4.437a.444.444 0 0 0-.625.447v.875a.674.674 0 0 0 .403.59 9.376 9.376 0 0 1 0 17.613.625.625 0 0 0-.403.59v.876a.444.444 0 0 0 .625.447 11.25 11.25 0 0 0 0-21.438z" fill="#fff"/></svg>
